<svg xmlns="http://www.w3.org/2000/svg" viewBox="0 0 119 48"><defs><style>.cls-1{fill:#e9161c;}.cls-2{fill:#b50201;}.cls-3{fill:#fa9984;}.cls-4{fill:#282433;}.cls-5{fill:#f9afa2;}.cls-6{fill:#dbdbdd;}.cls-7{fill:#acb9be;}.cls-8{fill:#70858c;}</style></defs><title>Asset 1</title><g id="Layer_2" data-name="Layer 2"><g id="Layer_1-2" data-name="Layer 1"><path class="cls-1" d="M75.17,0V9.17s.17,9.17-10.17,9.17H47.75a.59.59,0,0,1-.42-.18l-2-1.85a.66.66,0,0,0-.94,0A36.07,36.07,0,0,1,38,21.17c-2.17,1-4.16-.46-5.44,0-3.25,1.16-8.43,5.91-11.81,6.58C8.75,30.15,1,36.06,0,41a.32.32,0,0,0,.33.34l8.91-1,90-20.62c1.66-1-7.91-1.27-12.08-5.92C82.82,9,85.66,3.13,80.33,1.17A16.59,16.59,0,0,0,75.17,0Z"/><path class="cls-2" d="M97.06,19.92,88.75,40.38Q70,39.45,49.67,39.33c-16.24-.07-31.82.32-46.67,1.05.58-.7,1.14-1.38,1.77-2,1.84-1.87,4.25-3.49,9.39-4.73l.6-.14c8.4-1.91,13.9-4.7,26.95-5.52,8.76-.54,18.72-.77,24.67-3.22C74.25,21.5,97.06,19.92,97.06,19.92Z"/><path class="cls-3" d="M14.16,33.63C9,34.87,6.61,36.49,4.77,38.36a7.22,7.22,0,0,0-.95.19c3-2.67,6.34-4.44,9.18-4.88A5.51,5.51,0,0,1,14.16,33.63Z"/><path class="cls-2" d="M107.13,19.75h5.75a0,0,0,0,1,0,0v4.12a2.82,2.82,0,0,1-2.82,2.82h-2.93a0,0,0,0,1,0,0V19.75A0,0,0,0,1,107.13,19.75Z"/><path class="cls-4" d="M105.13,3.88H119a0,0,0,0,1,0,0V15.43a4.32,4.32,0,0,1-4.32,4.32h-9.56a0,0,0,0,1,0,0V3.88A0,0,0,0,1,105.13,3.88Z"/><path class="cls-4" d="M14.75,43.88l-1.62-7.81S4.2,38.12,1.38,39.25c-1.79.72-1.87,2.25,0,4.63Z"/><path class="cls-1" d="M83.44,41.89c.48,0,.93-.47.74-.91a16.78,16.78,0,0,1-1.44-7.48,14.14,14.14,0,0,1,1.38-6.32c.25-.5-.42-1.08-.94-.88-8.94,3.39-33.36,6.14-32.94,11.26l-.41,4a.77.77,0,0,0,.77.85Z"/><path class="cls-5" d="M52.25,26.69a39.25,39.25,0,0,0,7.41-1c9.46-2.45,9.65-3.92,15.09-5a67.23,67.23,0,0,1,10.38-.77c2.52-.05,6.94-.11,6.94-.11s-6.14-1.81-16.51-.4c-5.1.7-7.55,2.55-13.87,4.2C58.9,24.35,52.67,26.54,52.25,26.69Z"/><circle class="cls-4" cx="99.25" cy="33.88" r="14.13"/><circle class="cls-6" cx="99.25" cy="33.88" r="9.13"/><circle class="cls-7" cx="99.25" cy="33.88" r="7.19"/><circle class="cls-8" cx="99.25" cy="33.88" r="3.69"/><circle class="cls-4" cx="99.25" cy="33.88" r="2.19"/><circle class="cls-4" cx="28.88" cy="33.88" r="14.13"/><circle class="cls-6" cx="28.88" cy="33.88" r="9.13"/><circle class="cls-7" cx="28.88" cy="33.88" r="7.19"/><circle class="cls-8" cx="28.88" cy="33.88" r="3.69"/><circle class="cls-4" cx="28.88" cy="33.88" r="2.19"/></g></g></svg>